<?xml version="1.0" encoding="utf-8"?>
<!-- Generator: Adobe Illustrator 18.0.0, SVG Export Plug-In . SVG Version: 6.00 Build 0)  -->
<!DOCTYPE svg PUBLIC "-//W3C//DTD SVG 1.1//EN" "http://www.w3.org/Graphics/SVG/1.1/DTD/svg11.dtd">
<svg version="1.1" id="Layer_1" xmlns="http://www.w3.org/2000/svg" xmlns:xlink="http://www.w3.org/1999/xlink" x="0px" y="0px"
   viewBox="0 0 508 339.3" enable-background="new 0 0 508 339.3" xml:space="preserve">
<path fill="#FFFFFF" d="M146.9,180.3c-15.6,0-25,12.4-25,26.6c0,15.8,10.3,26.6,28.9,26.6c6.3,0,11.7-0.9,17.5-2.8l-2.3-9.3
  c-4.7,1.3-10.2,2-15.1,2c-9.5,0-16.2-4.5-16.4-12.2h36.4v-3.9C170.8,191.3,161.8,180.3,146.9,180.3z M134.6,202
  c0.9-7.8,5.7-11.8,12.3-11.8c7.2,0,11,4.4,11.7,11.8H134.6z"/>
<path fill="#FFFFFF" d="M206.6,180.3c-7.6,0-14.2,4.2-17.5,9.1v-8.1h-12.5v51.3h12.9V204c0-7.2,6.2-12.2,12-12.2
  c6.4,0,9.3,3.8,9.3,10.1v30.7h12.9V200C223.6,188.2,218.2,180.3,206.6,180.3z"/>
<path fill="#FFFFFF" d="M249.9,180.3c-6,0-12.5,0.6-18,1.8l1,9.5c5.6-0.7,10.4-1.2,15.8-1.2c9.5,0,12.3,2.7,12.3,8.4v4.3h-15.4
  c-10.5,0-16.6,5.3-16.6,15c0,9,7,15.3,17.3,15.3c7.1,0,11.9-2.3,15.3-6.5v5.7h12.3v-33.4C273.9,186.4,264.9,180.3,249.9,180.3z
   M261,213.5c0,6.4-4.3,10.8-11.2,10.8c-5.3,0-8-2-8-6.2c0-4.6,2.8-6.4,8-6.4H261V213.5z"/>
<path fill="#FFFFFF" d="M308.1,190.6c3.1,0,6.6,0.3,10.2,1.2l2.1-9.3c-4.2-1.6-8.6-2.2-13.4-2.2c-17.1,0-28.3,11.6-28.3,26.6
  c0,15,11.3,26.6,28.3,26.6c4.2,0,9.8-1.1,13.4-2.4l-2.1-9.4c-3.9,1.1-6.6,1.6-10.2,1.6c-11.2,0-16.5-6.7-16.5-16.3
  C291.5,197.3,296.9,190.6,308.1,190.6z"/>
<path fill="#FFFFFF" d="M386.1,209.8c0,7.2-6.2,12.1-12,12.1c-6.4,0-9.2-3.8-9.2-10.1v-30.6h-1.7l0,0h-25.8v-14.4h-12.9v14.4v8.6
  v27.9c0,11.3,6.8,15.6,16.2,15.6c2.5,0,5.6-0.4,7.4-0.8l-1.2-9.5c-1.2,0.2-2.8,0.4-3.7,0.4c-3.4,0-5.9-1.2-5.9-6.5v-27.1h14.7v23.9
  c0,11.8,5.4,19.6,17,19.6c7.6,0,14.1-4.2,17.4-9.1v8.2h12.6v-51.3h-13V209.8z"/>
<path fill="#FFFFFF" d="M429.3,202c-9.1-3.6-11.5-4.4-11.5-7.8c0-2.7,1.9-4,8.6-4c5.1,0,11.4,1.1,15.6,2.2l2.2-9.4
  c-5.6-1.9-13.1-2.7-18-2.7c-13.4,0-20.8,4.7-20.8,14.3c0,8.6,4.5,11.4,18.2,17c7.8,3.2,9.8,4,9.8,7.1c0,2.8-2.3,4.9-9.1,4.9
  c-5.3,0-11.8-1.5-18-3.7l-2.8,9c6.3,2.7,14.3,4.6,21,4.6c13,0,21.5-6.1,21.5-15.3C446.1,209.5,442.2,207.1,429.3,202z"/>
<g>
  <path fill="#FFFFFF" d="M449.6,227.2v-0.7h4.8v0.7h-2v5.4h-0.8v-5.4H449.6z"/>
  <path fill="#FFFFFF" d="M456.1,226.5l1.9,5.1l1.9-5.1h1.1v6h-0.8v-5h0l-1.9,5h-0.7l-1.9-5h0v5H455v-6H456.1z"/>
</g>
<polygon fill="#FFC222" points="189,143.6 160.8,115.4 160.8,115.4 97.6,52.3 97.6,143.6 47,143.6 97.6,194.2 148.1,143.6 
  148.1,143.6 "/>
<g>
  <polygon fill="#C88A12" points="97.6,194.2 97.6,143.6 91.9,143.6  "/>
  <polygon fill="#C88A12" points="168.5,123.1 148.1,143.6 154.4,143.6   "/>
</g>
<g>
  <path fill="#FFFFFF" d="M121.9,264.6h7c1.2,0,2.3,0.1,3.3,0.3c1,0.2,1.8,0.6,2.6,1c0.7,0.5,1.3,1.1,1.7,1.8
    c0.4,0.7,0.6,1.6,0.6,2.6c0,1.2-0.3,2.2-1,3.2c-0.7,0.9-1.7,1.6-3.1,2v0.1c1.7,0.3,3.1,0.9,4,1.8c1,0.9,1.4,2.2,1.4,3.9
    c0,1.2-0.2,2.2-0.6,3c-0.4,0.9-1,1.6-1.8,2.2c-0.8,0.6-1.7,1-2.8,1.3c-1.1,0.3-2.3,0.4-3.6,0.4h-7.5V264.6z M128.4,274.7
    c2,0,3.5-0.3,4.4-1c0.9-0.7,1.3-1.7,1.3-3c0-1.3-0.5-2.2-1.4-2.8c-0.9-0.6-2.3-0.8-4.2-0.8h-3.6v7.7H128.4z M129,285.9
    c2,0,3.6-0.4,4.8-1.1c1.1-0.8,1.7-1.9,1.7-3.5c0-1.5-0.6-2.5-1.7-3.2c-1.1-0.7-2.7-1-4.8-1h-4.1v8.9H129z"/>
  <path fill="#FFFFFF" d="M143.4,267.2c-0.6,0-1.1-0.2-1.5-0.5c-0.4-0.4-0.6-0.8-0.6-1.4c0-0.6,0.2-1,0.6-1.4s0.9-0.5,1.5-0.5
    c0.6,0,1.1,0.2,1.5,0.5s0.6,0.8,0.6,1.4c0,0.6-0.2,1-0.6,1.4C144.5,267,144,267.2,143.4,267.2z M141.9,270.8h3v17.5h-3V270.8z"/>
  <path fill="#FFFFFF" d="M149.9,270.8h2.4l0.3,2.5h0.1c0.8-0.8,1.7-1.5,2.6-2.1c0.9-0.6,2-0.8,3.2-0.8c1.8,0,3.2,0.6,4.1,1.7
    c0.9,1.2,1.3,2.9,1.3,5.1v11.1h-3v-10.7c0-1.7-0.3-2.8-0.8-3.6c-0.5-0.7-1.4-1.1-2.5-1.1c-0.9,0-1.7,0.2-2.4,0.7
    c-0.7,0.5-1.5,1.1-2.4,2v12.7h-3V270.8z"/>
  <path fill="#FFFFFF" d="M167.3,291.6c0-0.7,0.2-1.5,0.7-2.1c0.5-0.7,1.1-1.3,1.9-1.8v-0.1c-0.4-0.3-0.8-0.6-1.1-1.1
    c-0.3-0.5-0.5-1-0.5-1.7c0-0.7,0.2-1.4,0.6-1.9c0.4-0.6,0.8-1,1.3-1.3v-0.1c-0.6-0.5-1.1-1.1-1.6-1.9c-0.5-0.8-0.7-1.7-0.7-2.8
    c0-1,0.2-1.8,0.5-2.6c0.3-0.8,0.8-1.4,1.4-2c0.6-0.5,1.3-1,2.1-1.2c0.8-0.3,1.6-0.4,2.5-0.4c0.5,0,0.9,0,1.4,0.1
    c0.4,0.1,0.8,0.2,1.1,0.3h6.1v2.3h-3.6c0.4,0.4,0.7,0.9,1,1.5c0.3,0.6,0.4,1.3,0.4,2.1c0,0.9-0.2,1.8-0.5,2.5s-0.8,1.4-1.4,1.9
    c-0.6,0.5-1.3,0.9-2,1.2c-0.8,0.3-1.6,0.4-2.5,0.4c-0.4,0-0.9-0.1-1.3-0.2c-0.5-0.1-0.9-0.3-1.3-0.5c-0.3,0.3-0.6,0.6-0.8,0.9
    c-0.2,0.3-0.3,0.7-0.3,1.2c0,0.6,0.2,1,0.6,1.4c0.4,0.4,1.2,0.5,2.4,0.5h3.4c2,0,3.6,0.3,4.6,1c1,0.7,1.5,1.7,1.5,3.2
    c0,0.8-0.2,1.6-0.6,2.3c-0.4,0.7-1,1.4-1.8,1.9c-0.8,0.6-1.7,1-2.8,1.3c-1.1,0.3-2.3,0.5-3.7,0.5c-1.1,0-2.1-0.1-3-0.3
    c-0.9-0.2-1.7-0.5-2.3-0.9c-0.6-0.4-1.1-0.9-1.5-1.5C167.5,293,167.3,292.4,167.3,291.6z M169.9,291.2c0,0.9,0.5,1.7,1.4,2.2
    s2.1,0.8,3.7,0.8c0.8,0,1.6-0.1,2.3-0.3c0.7-0.2,1.3-0.5,1.7-0.8s0.9-0.7,1.1-1.1c0.3-0.4,0.4-0.9,0.4-1.3c0-0.8-0.3-1.4-0.9-1.7
    c-0.6-0.3-1.5-0.5-2.6-0.5h-3c-0.3,0-0.7,0-1.1-0.1c-0.4,0-0.8-0.1-1.2-0.2c-0.6,0.5-1.1,0.9-1.4,1.4
    C170.1,290.2,169.9,290.7,169.9,291.2z M174.6,280.7c0.5,0,1-0.1,1.4-0.3c0.4-0.2,0.8-0.5,1.2-0.8c0.3-0.4,0.6-0.8,0.8-1.3
    c0.2-0.5,0.3-1.1,0.3-1.7c0-1.3-0.4-2.3-1.1-3c-0.7-0.7-1.6-1.1-2.6-1.1c-1,0-1.9,0.4-2.6,1.1s-1.1,1.7-1.1,3
    c0,0.6,0.1,1.2,0.3,1.7c0.2,0.5,0.5,1,0.8,1.3c0.3,0.4,0.7,0.6,1.2,0.8C173.6,280.6,174.1,280.7,174.6,280.7z"/>
  <path fill="#FFFFFF" d="M185.9,262.6h3v7l-0.1,3.6c0.8-0.8,1.7-1.5,2.6-2c0.9-0.6,2-0.8,3.2-0.8c1.8,0,3.2,0.6,4.1,1.7
    c0.9,1.2,1.3,2.9,1.3,5.1v11.1h-3v-10.7c0-1.7-0.3-2.8-0.8-3.6c-0.5-0.7-1.4-1.1-2.5-1.1c-0.9,0-1.7,0.2-2.4,0.7
    c-0.7,0.5-1.5,1.1-2.4,2v12.7h-3V262.6z"/>
  <path fill="#FFFFFF" d="M203.7,283.7c0-1.9,0.9-3.4,2.6-4.4c1.7-1,4.4-1.7,8.2-2.1c0-0.6-0.1-1.1-0.2-1.6c-0.1-0.5-0.3-1-0.6-1.4
    c-0.3-0.4-0.6-0.7-1.1-1c-0.5-0.3-1-0.4-1.8-0.4c-1,0-2,0.2-2.9,0.6c-0.9,0.4-1.7,0.8-2.4,1.3l-1.2-2.1c0.8-0.5,1.8-1,3-1.5
    c1.2-0.5,2.5-0.7,3.9-0.7c2.1,0,3.7,0.7,4.6,2c1,1.3,1.4,3.1,1.4,5.2v10.7H215l-0.3-2.1h-0.1c-0.8,0.7-1.7,1.3-2.7,1.8
    c-1,0.5-2,0.7-3.1,0.7c-1.5,0-2.7-0.4-3.7-1.3C204.2,286.5,203.7,285.3,203.7,283.7z M206.6,283.5c0,1,0.3,1.7,0.9,2.2
    c0.6,0.4,1.3,0.6,2.2,0.6c0.8,0,1.6-0.2,2.4-0.6c0.8-0.4,1.6-1,2.4-1.7v-4.9c-1.5,0.2-2.7,0.4-3.7,0.7c-1,0.3-1.8,0.6-2.4,0.9
    c-0.6,0.4-1.1,0.8-1.3,1.2C206.8,282.4,206.6,283,206.6,283.5z"/>
  <path fill="#FFFFFF" d="M222.1,270.8h2.4l0.3,2.5h0.1c0.8-0.8,1.6-1.5,2.5-2.1c0.9-0.6,1.9-0.8,2.9-0.8c1.3,0,2.4,0.3,3.2,0.9
    c0.8,0.6,1.3,1.4,1.7,2.5c0.9-1,1.8-1.8,2.8-2.4c0.9-0.6,1.9-0.9,3-0.9c1.8,0,3.1,0.6,4,1.7c0.9,1.2,1.3,2.9,1.3,5.1v11.1h-3v-10.7
    c0-1.7-0.3-2.8-0.8-3.6c-0.5-0.7-1.3-1.1-2.4-1.1c-1.3,0-2.8,0.9-4.4,2.7v12.7h-3v-10.7c0-1.7-0.3-2.8-0.8-3.6
    c-0.5-0.7-1.4-1.1-2.5-1.1c-1.3,0-2.8,0.9-4.4,2.7v12.7h-3V270.8z"/>
  <path fill="#FFFFFF" d="M251.6,273.2H249v-2.2l2.7-0.2l0.4-4.9h2.5v4.9h4.7v2.4h-4.7v9.7c0,1.1,0.2,1.9,0.6,2.5
    c0.4,0.6,1.1,0.9,2.1,0.9c0.3,0,0.6,0,1-0.1c0.4-0.1,0.7-0.2,1-0.3l0.6,2.2c-0.5,0.2-1,0.3-1.6,0.5c-0.6,0.1-1.1,0.2-1.7,0.2
    c-0.9,0-1.7-0.1-2.4-0.4c-0.6-0.3-1.2-0.7-1.5-1.2c-0.4-0.5-0.7-1.1-0.8-1.8c-0.2-0.7-0.3-1.5-0.3-2.4V273.2z"/>
  <path fill="#FFFFFF" d="M260.7,279.5c0-1.5,0.2-2.8,0.7-3.9c0.4-1.1,1-2.1,1.8-2.9c0.7-0.8,1.6-1.4,2.6-1.8c1-0.4,2-0.6,3.1-0.6
    s2.1,0.2,3.1,0.6c1,0.4,1.8,1,2.6,1.8c0.7,0.8,1.3,1.8,1.8,2.9c0.4,1.1,0.7,2.4,0.7,3.9c0,1.4-0.2,2.7-0.7,3.9
    c-0.4,1.1-1,2.1-1.8,2.9c-0.7,0.8-1.6,1.4-2.6,1.8c-1,0.4-2,0.6-3.1,0.6s-2.1-0.2-3.1-0.6c-1-0.4-1.8-1-2.6-1.8
    c-0.7-0.8-1.3-1.7-1.8-2.9C260.9,282.3,260.7,281,260.7,279.5z M263.7,279.5c0,1,0.1,1.9,0.4,2.7c0.2,0.8,0.6,1.5,1,2.1
    c0.4,0.6,1,1,1.6,1.4c0.6,0.3,1.3,0.5,2.1,0.5c0.7,0,1.4-0.2,2.1-0.5c0.6-0.3,1.2-0.8,1.6-1.4c0.4-0.6,0.8-1.3,1-2.1
    c0.2-0.8,0.4-1.7,0.4-2.7s-0.1-1.9-0.4-2.8c-0.2-0.8-0.6-1.5-1-2.1c-0.4-0.6-1-1.1-1.6-1.4c-0.6-0.3-1.3-0.5-2.1-0.5
    c-0.7,0-1.4,0.2-2.1,0.5c-0.6,0.3-1.2,0.8-1.6,1.4c-0.4,0.6-0.8,1.3-1,2.1C263.8,277.6,263.7,278.5,263.7,279.5z"/>
  <path fill="#FFFFFF" d="M280.6,270.8h2.4l0.3,2.5h0.1c0.8-0.8,1.7-1.5,2.6-2.1c0.9-0.6,2-0.8,3.2-0.8c1.8,0,3.2,0.6,4.1,1.7
    c0.9,1.2,1.3,2.9,1.3,5.1v11.1h-3v-10.7c0-1.7-0.3-2.8-0.8-3.6c-0.5-0.7-1.4-1.1-2.5-1.1c-0.9,0-1.7,0.2-2.4,0.7
    c-0.7,0.5-1.5,1.1-2.4,2v12.7h-3V270.8z"/>
  <path fill="#FFFFFF" d="M305.9,264.6h3v13.9c0,1.4,0.1,2.6,0.4,3.6c0.3,1,0.7,1.7,1.2,2.3c0.5,0.6,1.1,1,1.7,1.2s1.4,0.4,2.2,0.4
    c0.8,0,1.5-0.1,2.2-0.4s1.3-0.7,1.8-1.2c0.5-0.6,0.9-1.3,1.2-2.3s0.4-2.1,0.4-3.6v-13.9h2.9v13.9c0,1.9-0.2,3.5-0.6,4.8
    s-1,2.3-1.8,3.1c-0.8,0.8-1.7,1.4-2.7,1.7c-1,0.3-2.1,0.5-3.3,0.5c-1.2,0-2.3-0.2-3.4-0.5s-1.9-0.9-2.7-1.7
    c-0.8-0.8-1.3-1.9-1.8-3.1c-0.4-1.3-0.6-2.9-0.6-4.8V264.6z"/>
  <path fill="#FFFFFF" d="M328.1,270.8h2.4l0.3,2.5h0.1c0.8-0.8,1.7-1.5,2.6-2.1c0.9-0.6,2-0.8,3.2-0.8c1.8,0,3.2,0.6,4,1.7
    c0.9,1.2,1.3,2.9,1.3,5.1v11.1h-3v-10.7c0-1.7-0.3-2.8-0.8-3.6c-0.5-0.7-1.4-1.1-2.5-1.1c-0.9,0-1.7,0.2-2.4,0.7
    c-0.7,0.5-1.5,1.1-2.4,2v12.7h-3V270.8z"/>
  <path fill="#FFFFFF" d="M348.4,267.2c-0.6,0-1.1-0.2-1.5-0.5c-0.4-0.4-0.6-0.8-0.6-1.4c0-0.6,0.2-1,0.6-1.4
    c0.4-0.3,0.9-0.5,1.5-0.5s1.1,0.2,1.5,0.5c0.4,0.3,0.6,0.8,0.6,1.4c0,0.6-0.2,1-0.6,1.4C349.4,267,348.9,267.2,348.4,267.2z
     M346.9,270.8h3v17.5h-3V270.8z"/>
  <path fill="#FFFFFF" d="M352.3,270.8h3.1l3.3,9.9c0.3,0.9,0.5,1.7,0.8,2.6c0.3,0.9,0.5,1.7,0.8,2.6h0.1c0.3-0.8,0.5-1.7,0.8-2.6
    c0.3-0.9,0.5-1.7,0.8-2.6l3.3-9.9h2.9l-6.2,17.5h-3.5L352.3,270.8z"/>
  <path fill="#FFFFFF" d="M369.3,279.5c0-1.4,0.2-2.7,0.7-3.9c0.4-1.1,1-2.1,1.8-2.9c0.7-0.8,1.6-1.4,2.5-1.8s1.9-0.6,2.9-0.6
    c1.1,0,2.1,0.2,3,0.6c0.9,0.4,1.6,0.9,2.2,1.7c0.6,0.7,1,1.6,1.3,2.6c0.3,1,0.5,2.1,0.5,3.4c0,0.6,0,1.2-0.1,1.6h-11.8
    c0.1,1.9,0.7,3.4,1.7,4.5c1,1.1,2.4,1.7,4.1,1.7c0.8,0,1.6-0.1,2.3-0.4c0.7-0.3,1.4-0.6,2-1l1,1.9c-0.8,0.5-1.6,0.9-2.6,1.3
    c-0.9,0.4-2,0.5-3.2,0.5c-1.2,0-2.3-0.2-3.3-0.6c-1-0.4-1.9-1-2.7-1.8c-0.8-0.8-1.3-1.7-1.8-2.9C369.5,282.3,369.3,281,369.3,279.5
    z M381.5,278.2c0-1.8-0.4-3.2-1.1-4.1s-1.8-1.4-3.2-1.4c-0.6,0-1.2,0.1-1.8,0.4s-1.1,0.6-1.5,1.1c-0.5,0.5-0.8,1-1.1,1.7
    c-0.3,0.7-0.5,1.5-0.6,2.4H381.5z"/>
  <path fill="#FFFFFF" d="M387.5,270.8h2.4l0.3,3.2h0.1c0.6-1.1,1.3-2,2.2-2.6c0.9-0.6,1.8-1,2.8-1c0.7,0,1.3,0.1,1.9,0.4l-0.6,2.6
    c-0.3-0.1-0.6-0.2-0.8-0.2c-0.2,0-0.5-0.1-0.9-0.1c-0.7,0-1.5,0.3-2.3,0.9c-0.8,0.6-1.5,1.6-2.1,3.1v11.2h-3V270.8z"/>
  <path fill="#FFFFFF" d="M398.3,284.3c0.8,0.6,1.6,1.1,2.4,1.5c0.8,0.4,1.7,0.6,2.8,0.6c1.2,0,2-0.3,2.6-0.8
    c0.6-0.5,0.9-1.2,0.9-1.9c0-0.5-0.1-0.9-0.4-1.2c-0.2-0.3-0.5-0.6-0.9-0.9c-0.4-0.3-0.8-0.5-1.3-0.7s-1-0.4-1.4-0.6
    c-0.6-0.2-1.2-0.5-1.9-0.7c-0.6-0.3-1.2-0.6-1.7-1c-0.5-0.4-0.9-0.9-1.2-1.4c-0.3-0.5-0.5-1.2-0.5-1.9c0-0.7,0.1-1.3,0.4-2
    s0.7-1.1,1.2-1.6c0.5-0.4,1.1-0.8,1.9-1s1.6-0.4,2.5-0.4c1.1,0,2.1,0.2,3,0.6s1.7,0.9,2.4,1.4l-1.4,1.9c-0.6-0.5-1.2-0.8-1.9-1.1
    c-0.6-0.3-1.4-0.4-2.1-0.4c-1.1,0-1.9,0.3-2.4,0.8c-0.5,0.5-0.8,1.1-0.8,1.8c0,0.4,0.1,0.8,0.3,1.1c0.2,0.3,0.5,0.6,0.9,0.8
    c0.4,0.2,0.8,0.4,1.2,0.6c0.5,0.2,1,0.4,1.5,0.6c0.6,0.2,1.3,0.5,1.9,0.8c0.6,0.3,1.2,0.6,1.7,1c0.5,0.4,0.9,0.9,1.2,1.5
    s0.5,1.3,0.5,2.1c0,0.7-0.1,1.4-0.4,2c-0.3,0.6-0.7,1.2-1.2,1.7c-0.5,0.5-1.2,0.9-2,1.1c-0.8,0.3-1.7,0.4-2.8,0.4
    c-1.2,0-2.4-0.2-3.6-0.7c-1.1-0.5-2.1-1-3-1.7L398.3,284.3z"/>
  <path fill="#FFFFFF" d="M414.5,267.2c-0.6,0-1.1-0.2-1.5-0.5c-0.4-0.4-0.6-0.8-0.6-1.4c0-0.6,0.2-1,0.6-1.4s0.9-0.5,1.5-0.5
    s1.1,0.2,1.5,0.5s0.6,0.8,0.6,1.4c0,0.6-0.2,1-0.6,1.4C415.5,267,415,267.2,414.5,267.2z M412.9,270.8h3v17.5h-3V270.8z"/>
  <path fill="#FFFFFF" d="M421.4,273.2h-2.6v-2.2l2.7-0.2l0.4-4.9h2.5v4.9h4.7v2.4h-4.7v9.7c0,1.1,0.2,1.9,0.6,2.5
    c0.4,0.6,1.1,0.9,2.1,0.9c0.3,0,0.6,0,1-0.1c0.4-0.1,0.7-0.2,1-0.3l0.6,2.2c-0.5,0.2-1,0.3-1.6,0.5c-0.6,0.1-1.1,0.2-1.7,0.2
    c-0.9,0-1.7-0.1-2.4-0.4c-0.6-0.3-1.2-0.7-1.5-1.2c-0.4-0.5-0.7-1.1-0.8-1.8c-0.2-0.7-0.3-1.5-0.3-2.4V273.2z"/>
  <path fill="#FFFFFF" d="M431.6,293.2c0.2,0.1,0.5,0.1,0.7,0.1c1,0,1.8-0.4,2.5-1.1c0.6-0.7,1.1-1.6,1.5-2.7l0.4-1.3l-7-17.5h3.1
    l3.6,9.7c0.3,0.8,0.5,1.6,0.8,2.4s0.6,1.7,0.8,2.5h0.1c0.3-0.8,0.5-1.6,0.8-2.5c0.2-0.9,0.5-1.7,0.7-2.4l3.1-9.7h2.9l-6.6,18.9
    c-0.3,0.9-0.7,1.7-1,2.4c-0.4,0.7-0.8,1.4-1.4,1.9c-0.5,0.5-1.1,1-1.8,1.3s-1.5,0.5-2.3,0.5c-0.4,0-0.8,0-1.1-0.1s-0.6-0.1-0.9-0.3
    l0.6-2.3C431.2,293.1,431.4,293.2,431.6,293.2z"/>
</g>
</svg>
