<?xml version="1.0" encoding="utf-8"?>
<!-- Generator: Adobe Illustrator 18.0.0, SVG Export Plug-In . SVG Version: 6.00 Build 0)  -->
<!DOCTYPE svg PUBLIC "-//W3C//DTD SVG 1.1//EN" "http://www.w3.org/Graphics/SVG/1.1/DTD/svg11.dtd">
<svg version="1.1" xmlns="http://www.w3.org/2000/svg" xmlns:xlink="http://www.w3.org/1999/xlink" x="0px" y="0px"
   viewBox="0 0 960 560" enable-background="new 0 0 960 560" xml:space="preserve">
<g id="Background">
  <rect fill="#515356" width="960" height="560"/>
</g>
<g id="Logo">
  <path fill="#FFFFFF" d="M303.2,297.6c-25.7,0-41.3,20.5-41.3,43.9c0,26.1,17,43.9,47.7,43.9c10.4,0,19.3-1.5,28.9-4.6l-3.8-15.3
    c-7.8,2.1-16.8,3.3-24.9,3.3c-15.7,0-26.7-7.4-27.1-20.1h60.1v-6.4C342.7,315.7,327.8,297.6,303.2,297.6z M282.9,333.4
    c1.5-12.9,9.4-19.5,20.3-19.5c11.9,0,18.2,7.3,19.3,19.5H282.9z"/>
  <path fill="#FFFFFF" d="M401.8,297.6c-12.5,0-23.4,6.9-28.9,15v-13.4h-20.6v84.7h21.3v-47.2c0-11.9,10.2-20.1,19.8-20.1
    c10.6,0,15.3,6.3,15.3,16.7v50.7H430v-53.8C429.8,310.6,420.9,297.6,401.8,297.6z"/>
  <path fill="#FFFFFF" d="M473.2,297.6c-9.9,0-20.6,1-29.7,3l1.7,15.7c9.2-1.2,17.2-2,26.1-2c15.7,0,20.3,4.5,20.3,13.9v7.1h-25.4
    c-17.3,0-27.4,8.7-27.4,24.8c0,14.9,11.6,25.3,28.6,25.3c11.7,0,19.6-3.8,25.3-10.7v9.4h20.3v-55.1
    C512.8,307.6,498,297.6,473.2,297.6z M491.6,352.4c0,10.6-7.1,17.8-18.5,17.8c-8.7,0-13.2-3.3-13.2-10.2c0-7.6,4.6-10.6,13.2-10.6
    h18.5V352.4z"/>
  <path fill="#FFFFFF" d="M569.3,314.6c5.1,0,10.9,0.5,16.8,2l3.5-15.3c-6.9-2.6-14.2-3.6-22.1-3.6c-28.2,0-46.7,19.1-46.7,43.9
    c0,24.8,18.7,43.9,46.7,43.9c6.9,0,16.2-1.8,22.1-4l-3.5-15.5c-6.4,1.8-10.9,2.6-16.8,2.6c-18.5,0-27.2-11.1-27.2-26.9
    C541.9,325.6,550.8,314.6,569.3,314.6z"/>
  <path fill="#FFFFFF" d="M698,346.3c0,11.9-10.2,20-19.8,20c-10.6,0-15.2-6.3-15.2-16.7v-50.5h-2.8l0,0h-42.6v-23.8h-21.3v23.8v14.2
    v46c0,18.7,11.2,25.7,26.7,25.7c4.1,0,9.2-0.7,12.2-1.3l-2-15.7c-2,0.3-4.6,0.7-6.1,0.7c-5.6,0-9.7-2-9.7-10.7v-44.7h24.3v39.4
    c0,19.5,8.9,32.3,28.1,32.3c12.5,0,23.3-6.9,28.7-15v13.5h20.8v-84.7h-21.5v47.4H698z"/>
  <path fill="#FFFFFF" d="M769.3,333.4c-15-5.9-19-7.3-19-12.9c0-4.5,3.1-6.6,14.2-6.6c8.4,0,18.8,1.8,25.7,3.6l3.6-15.5
    c-9.2-3.1-21.6-4.5-29.7-4.5c-22.1,0-34.3,7.8-34.3,23.6c0,14.2,7.4,18.8,30,28.1c12.9,5.3,16.2,6.6,16.2,11.7
    c0,4.6-3.8,8.1-15,8.1c-8.7,0-19.5-2.5-29.7-6.1l-4.6,14.9c10.4,4.5,23.6,7.6,34.7,7.6c21.5,0,35.5-10.1,35.5-25.3
    C797.1,345.8,790.6,341.8,769.3,333.4z"/>
  <g>
    <path fill="#FFFFFF" d="M802.8,375v-1.2h7.9v1.2h-3.3v8.9h-1.3V375H802.8z"/>
    <path fill="#FFFFFF" d="M813.6,373.8l3.1,8.4l3.1-8.4h1.8v9.9h-1.3v-8.3l0,0l-3.1,8.3H816l-3.1-8.3l0,0v8.3h-1.2v-9.9H813.6z"/>
  </g>
  <polygon fill="#FFC222" points="372.7,237 326.2,190.5 326.2,190.5 221.9,86.3 221.9,237 138.4,237 221.9,320.5 305.2,237 
    305.2,237   "/>
  <g>
    <polygon fill="#C88A12" points="221.9,320.5 221.9,237 212.5,237     "/>
    <polygon fill="#C88A12" points="338.9,203.2 305.2,237 315.6,237     "/>
  </g>
  <g>
    <path fill="#FFFFFF" d="M262,436.7h11.6c2,0,3.8,0.2,5.4,0.5c1.7,0.3,3,1,4.3,1.7c1.2,0.8,2.1,1.8,2.8,3c0.7,1.2,1,2.6,1,4.3
      c0,2-0.5,3.6-1.7,5.3c-1.2,1.5-2.8,2.6-5.1,3.3v0.2c2.8,0.5,5.1,1.5,6.6,3c1.7,1.5,2.3,3.6,2.3,6.4c0,2-0.3,3.6-1,5
      c-0.7,1.5-1.7,2.6-3,3.6c-1.3,1-2.8,1.7-4.6,2.1c-1.8,0.5-3.8,0.7-5.9,0.7h-12.4v-39H262z M272.7,453.4c3.3,0,5.8-0.5,7.3-1.7
      c1.5-1.2,2.1-2.8,2.1-5c0-2.1-0.8-3.6-2.3-4.6c-1.5-1-3.8-1.3-6.9-1.3h-5.9v12.7h5.8V453.4z M273.7,471.9c3.3,0,5.9-0.7,7.9-1.8
      c1.8-1.3,2.8-3.1,2.8-5.8c0-2.5-1-4.1-2.8-5.3c-1.8-1.2-4.5-1.7-7.9-1.7h-6.8V472h6.8V471.9z"/>
    <path fill="#FFFFFF" d="M297.5,441c-1,0-1.8-0.3-2.5-0.8c-0.7-0.7-1-1.3-1-2.3c0-1,0.3-1.7,1-2.3c0.7-0.7,1.5-0.8,2.5-0.8
      s1.8,0.3,2.5,0.8c0.7,0.5,1,1.3,1,2.3c0,1-0.3,1.7-1,2.3C299.3,440.7,298.4,441,297.5,441z M295,446.9h5v28.9h-5V446.9z"/>
    <path fill="#FFFFFF" d="M308.2,446.9h4l0.5,4.1h0.2c1.3-1.3,2.8-2.5,4.3-3.5s3.3-1.3,5.3-1.3c3,0,5.3,1,6.8,2.8
      c1.5,2,2.1,4.8,2.1,8.4v18.3h-5v-17.7c0-2.8-0.5-4.6-1.3-5.9c-0.8-1.2-2.3-1.8-4.1-1.8c-1.5,0-2.8,0.3-4,1.2
      c-1.2,0.8-2.5,1.8-4,3.3v21h-5v-28.9H308.2z"/>
    <path fill="#FFFFFF" d="M336.9,481.3c0-1.2,0.3-2.5,1.2-3.5c0.8-1.2,1.8-2.1,3.1-3v-0.2c-0.7-0.5-1.3-1-1.8-1.8s-0.8-1.7-0.8-2.8
      s0.3-2.3,1-3.1c0.7-1,1.3-1.7,2.1-2.1v-0.2c-1-0.8-1.8-1.8-2.6-3.1s-1.2-2.8-1.2-4.6c0-1.7,0.3-3,0.8-4.3c0.5-1.3,1.3-2.3,2.3-3.3
      c1-0.8,2.1-1.7,3.5-2c1.3-0.5,2.6-0.7,4.1-0.7c0.8,0,1.5,0,2.3,0.2c0.7,0.2,1.3,0.3,1.8,0.5h10.1v3.8h-5.9
      c0.7,0.7,1.2,1.5,1.7,2.5c0.5,1,0.7,2.1,0.7,3.5c0,1.5-0.3,3-0.8,4.1c-0.5,1.2-1.3,2.3-2.3,3.1s-2.1,1.5-3.3,2
      c-1.3,0.5-2.6,0.7-4.1,0.7c-0.7,0-1.5-0.2-2.1-0.3c-0.8-0.2-1.5-0.5-2.1-0.8c-0.5,0.5-1,1-1.3,1.5c-0.3,0.5-0.5,1.2-0.5,2
      c0,1,0.3,1.7,1,2.3c0.7,0.7,2,0.8,4,0.8h5.6c3.3,0,5.9,0.5,7.6,1.7c1.7,1.2,2.5,2.8,2.5,5.3c0,1.3-0.3,2.6-1,3.8
      c-0.7,1.2-1.7,2.3-3,3.1c-1.3,1-2.8,1.7-4.6,2.1s-3.8,0.8-6.1,0.8c-1.8,0-3.5-0.2-5-0.5c-1.5-0.3-2.8-0.8-3.8-1.5
      c-1-0.7-1.8-1.5-2.5-2.5C337.2,483.6,336.9,482.6,336.9,481.3z M341.2,480.6c0,1.5,0.8,2.8,2.3,3.6c1.5,0.8,3.5,1.3,6.1,1.3
      c1.3,0,2.6-0.2,3.8-0.5c1.2-0.3,2.1-0.8,2.8-1.3c0.7-0.5,1.5-1.2,1.8-1.8c0.5-0.7,0.7-1.5,0.7-2.1c0-1.3-0.5-2.3-1.5-2.8
      c-1-0.5-2.5-0.8-4.3-0.8h-5c-0.5,0-1.2,0-1.8-0.2c-0.7,0-1.3-0.2-2-0.3c-1,0.8-1.8,1.5-2.3,2.3C341.5,479,341.2,479.8,341.2,480.6
      z M349,463.3c0.8,0,1.7-0.2,2.3-0.5c0.7-0.3,1.3-0.8,2-1.3c0.5-0.7,1-1.3,1.3-2.1c0.3-0.8,0.5-1.8,0.5-2.8c0-2.1-0.7-3.8-1.8-5
      s-2.6-1.8-4.3-1.8s-3.1,0.7-4.3,1.8s-1.8,2.8-1.8,5c0,1,0.2,2,0.5,2.8s0.8,1.7,1.3,2.1c0.5,0.7,1.2,1,2,1.3
      C347.3,463.1,348.1,463.3,349,463.3z"/>
    <path fill="#FFFFFF" d="M367.6,433.4h5V445l-0.2,5.9c1.3-1.3,2.8-2.5,4.3-3.3c1.5-1,3.3-1.3,5.3-1.3c3,0,5.3,1,6.8,2.8
      c1.5,2,2.1,4.8,2.1,8.4v18.3h-5v-17.7c0-2.8-0.5-4.6-1.3-5.9c-0.8-1.2-2.3-1.8-4.1-1.8c-1.5,0-2.8,0.3-4,1.2
      c-1.2,0.8-2.5,1.8-4,3.3v21h-5L367.6,433.4L367.6,433.4z"/>
    <path fill="#FFFFFF" d="M397,468.2c0-3.1,1.5-5.6,4.3-7.3c2.8-1.7,7.3-2.8,13.5-3.5c0-1-0.2-1.8-0.3-2.6c-0.2-0.8-0.5-1.7-1-2.3
      c-0.5-0.7-1-1.2-1.8-1.7s-1.7-0.7-3-0.7c-1.7,0-3.3,0.3-4.8,1c-1.5,0.7-2.8,1.3-4,2.1l-2-3.5c1.3-0.8,3-1.7,5-2.5
      c2-0.8,4.1-1.2,6.4-1.2c3.5,0,6.1,1.2,7.6,3.3c1.7,2.1,2.3,5.1,2.3,8.6v17.7h-3.6l-0.5-3.5H415c-1.3,1.2-2.8,2.1-4.5,3
      c-1.7,0.8-3.3,1.2-5.1,1.2c-2.5,0-4.5-0.7-6.1-2.1C397.8,472.9,397,470.9,397,468.2z M401.8,467.9c0,1.7,0.5,2.8,1.5,3.6
      c1,0.7,2.1,1,3.6,1c1.3,0,2.6-0.3,4-1c1.3-0.7,2.6-1.7,4-2.8v-8.1c-2.5,0.3-4.5,0.7-6.1,1.2c-1.7,0.5-3,1-4,1.5
      c-1,0.7-1.8,1.3-2.1,2C402.1,466.1,401.8,467.1,401.8,467.9z"/>
    <path fill="#FFFFFF" d="M427.4,446.9h4l0.5,4.1h0.2c1.3-1.3,2.6-2.5,4.1-3.5c1.5-1,3.1-1.3,4.8-1.3c2.1,0,4,0.5,5.3,1.5
      c1.3,1,2.1,2.3,2.8,4.1c1.5-1.7,3-3,4.6-4c1.5-1,3.1-1.5,5-1.5c3,0,5.1,1,6.6,2.8c1.5,2,2.1,4.8,2.1,8.4V476h-5v-17.7
      c0-2.8-0.5-4.6-1.3-5.9c-0.8-1.2-2.1-1.8-4-1.8c-2.1,0-4.6,1.5-7.3,4.5v21h-5v-17.7c0-2.8-0.5-4.6-1.3-5.9
      c-0.8-1.2-2.3-1.8-4.1-1.8c-2.1,0-4.6,1.5-7.3,4.5v21h-5v-29H427.4z"/>
    <path fill="#FFFFFF" d="M476,450.9h-4.3v-3.6l4.5-0.3l0.7-8.1h4.1v8.1h7.8v4H481v16c0,1.8,0.3,3.1,1,4.1c0.7,1,1.8,1.5,3.5,1.5
      c0.5,0,1,0,1.7-0.2c0.7-0.2,1.2-0.3,1.7-0.5l1,3.6c-0.8,0.3-1.7,0.5-2.6,0.8c-1,0.2-1.8,0.3-2.8,0.3c-1.5,0-2.8-0.2-4-0.7
      c-1-0.5-2-1.2-2.5-2c-0.7-0.8-1.2-1.8-1.3-3c-0.3-1.2-0.5-2.5-0.5-4L476,450.9L476,450.9z"/>
    <path fill="#FFFFFF" d="M491.1,461.3c0-2.5,0.3-4.6,1.2-6.4c0.7-1.8,1.7-3.5,3-4.8c1.2-1.3,2.6-2.3,4.3-3c1.7-0.7,3.3-1,5.1-1
      c1.8,0,3.5,0.3,5.1,1c1.7,0.7,3,1.7,4.3,3c1.2,1.3,2.1,3,3,4.8c0.7,1.8,1.2,4,1.2,6.4c0,2.3-0.3,4.5-1.2,6.4
      c-0.7,1.8-1.7,3.5-3,4.8c-1.2,1.3-2.6,2.3-4.3,3c-1.7,0.7-3.3,1-5.1,1c-1.8,0-3.5-0.3-5.1-1c-1.7-0.7-3-1.7-4.3-3
      c-1.2-1.3-2.1-2.8-3-4.8C491.4,465.9,491.1,463.8,491.1,461.3z M496,461.3c0,1.7,0.2,3.1,0.7,4.5c0.3,1.3,1,2.5,1.7,3.5
      c0.7,1,1.7,1.7,2.6,2.3c1,0.5,2.1,0.8,3.5,0.8c1.2,0,2.3-0.3,3.5-0.8c1-0.5,2-1.3,2.6-2.3c0.7-1,1.3-2.1,1.7-3.5
      c0.3-1.3,0.7-2.8,0.7-4.5s-0.2-3.1-0.7-4.6c-0.3-1.3-1-2.5-1.7-3.5c-0.7-1-1.7-1.8-2.6-2.3c-1-0.5-2.1-0.8-3.5-0.8
      c-1.2,0-2.3,0.3-3.5,0.8c-1,0.5-2,1.3-2.6,2.3c-0.7,1-1.3,2.1-1.7,3.5C496.2,458.2,496,459.7,496,461.3z"/>
    <path fill="#FFFFFF" d="M523.9,446.9h4l0.5,4.1h0.2c1.3-1.3,2.8-2.5,4.3-3.5c1.5-1,3.3-1.3,5.3-1.3c3,0,5.3,1,6.8,2.8
      c1.5,2,2.1,4.8,2.1,8.4v18.3h-5v-17.7c0-2.8-0.5-4.6-1.3-5.9c-0.8-1.2-2.3-1.8-4.1-1.8c-1.5,0-2.8,0.3-4,1.2
      c-1.2,0.8-2.5,1.8-4,3.3v21h-5v-28.9H523.9z"/>
    <path fill="#FFFFFF" d="M565.7,436.7h5v22.9c0,2.3,0.2,4.3,0.7,5.9s1.2,2.8,2,3.8c0.8,1,1.8,1.7,2.8,2c1,0.3,2.3,0.7,3.6,0.7
      s2.5-0.2,3.6-0.7s2.1-1.2,3-2c0.8-1,1.5-2.1,2-3.8s0.7-3.5,0.7-5.9v-22.9h4.8v22.9c0,3.1-0.3,5.8-1,7.9c-0.7,2.1-1.7,3.8-3,5.1
      c-1.3,1.3-2.8,2.3-4.5,2.8c-1.7,0.5-3.5,0.8-5.4,0.8s-3.8-0.3-5.6-0.8c-1.8-0.5-3.1-1.5-4.5-2.8c-1.3-1.3-2.1-3.1-3-5.1
      c-0.7-2.1-1-4.8-1-7.9v-22.9H565.7z"/>
    <path fill="#FFFFFF" d="M602.3,446.9h4l0.5,4.1h0.2c1.3-1.3,2.8-2.5,4.3-3.5s3.3-1.3,5.3-1.3c3,0,5.3,1,6.6,2.8
      c1.5,2,2.1,4.8,2.1,8.4v18.3h-5v-17.7c0-2.8-0.5-4.6-1.3-5.9c-0.8-1.2-2.3-1.8-4.1-1.8c-1.5,0-2.8,0.3-4,1.2
      c-1.2,0.8-2.5,1.8-4,3.3v21h-5v-28.9H602.3z"/>
    <path fill="#FFFFFF" d="M635.8,441c-1,0-1.8-0.3-2.5-0.8c-0.7-0.7-1-1.3-1-2.3c0-1,0.3-1.7,1-2.3c0.7-0.5,1.5-0.8,2.5-0.8
      s1.8,0.3,2.5,0.8s1,1.3,1,2.3c0,1-0.3,1.7-1,2.3C637.5,440.7,636.6,441,635.8,441z M633.3,446.9h5v28.9h-5V446.9z"/>
    <path fill="#FFFFFF" d="M642.2,446.9h5.1l5.4,16.3c0.5,1.5,0.8,2.8,1.3,4.3c0.5,1.5,0.8,2.8,1.3,4.3h0.2c0.5-1.3,0.8-2.8,1.3-4.3
      c0.5-1.5,0.8-2.8,1.3-4.3l5.4-16.3h4.8l-10.2,28.9h-5.8L642.2,446.9z"/>
    <path fill="#FFFFFF" d="M670.3,461.3c0-2.3,0.3-4.5,1.2-6.4c0.7-1.8,1.7-3.5,3-4.8c1.2-1.3,2.6-2.3,4.1-3c1.5-0.7,3.1-1,4.8-1
      c1.8,0,3.5,0.3,5,1c1.5,0.7,2.6,1.5,3.6,2.8c1,1.2,1.7,2.6,2.1,4.3s0.8,3.5,0.8,5.6c0,1,0,2-0.2,2.6h-19.5
      c0.2,3.1,1.2,5.6,2.8,7.4c1.7,1.8,4,2.8,6.8,2.8c1.3,0,2.6-0.2,3.8-0.7c1.2-0.5,2.3-1,3.3-1.7l1.7,3.1c-1.3,0.8-2.6,1.5-4.3,2.1
      c-1.5,0.7-3.3,0.8-5.3,0.8c-2,0-3.8-0.3-5.4-1c-1.7-0.7-3.1-1.7-4.5-3c-1.3-1.3-2.1-2.8-3-4.8
      C670.6,465.9,670.3,463.8,670.3,461.3z M690.4,459.2c0-3-0.7-5.3-1.8-6.8c-1.2-1.5-3-2.3-5.3-2.3c-1,0-2,0.2-3,0.7
      c-1,0.5-1.8,1-2.5,1.8c-0.8,0.8-1.3,1.7-1.8,2.8c-0.5,1.2-0.8,2.5-1,4h15.3V459.2z"/>
    <path fill="#FFFFFF" d="M700.3,446.9h4l0.5,5.3h0.2c1-1.8,2.1-3.3,3.6-4.3s3-1.7,4.6-1.7c1.2,0,2.1,0.2,3.1,0.7l-1,4.3
      c-0.5-0.2-1-0.3-1.3-0.3s-0.8-0.2-1.5-0.2c-1.2,0-2.5,0.5-3.8,1.5c-1.3,1-2.5,2.6-3.5,5.1v18.5h-5V446.9z"/>
    <path fill="#FFFFFF" d="M718.2,469.2c1.3,1,2.6,1.8,4,2.5c1.3,0.7,2.8,1,4.6,1c2,0,3.3-0.5,4.3-1.3c1-0.8,1.5-2,1.5-3.1
      c0-0.8-0.2-1.5-0.7-2c-0.3-0.5-0.8-1-1.5-1.5s-1.3-0.8-2.1-1.2s-1.7-0.7-2.3-1c-1-0.3-2-0.8-3.1-1.2c-1-0.5-2-1-2.8-1.7
      c-0.8-0.7-1.5-1.5-2-2.3c-0.5-0.8-0.8-2-0.8-3.1c0-1.2,0.2-2.1,0.7-3.3s1.2-1.8,2-2.6c0.8-0.7,1.8-1.3,3.1-1.7
      c1.3-0.3,2.6-0.7,4.1-0.7c1.8,0,3.5,0.3,5,1s2.8,1.5,4,2.3l-2.3,3.1c-1-0.8-2-1.3-3.1-1.8c-1-0.5-2.3-0.7-3.5-0.7
      c-1.8,0-3.1,0.5-4,1.3c-0.8,0.8-1.3,1.8-1.3,3c0,0.7,0.2,1.3,0.5,1.8c0.3,0.5,0.8,1,1.5,1.3c0.7,0.3,1.3,0.7,2,1
      c0.8,0.3,1.7,0.7,2.5,1c1,0.3,2.1,0.8,3.1,1.3s2,1,2.8,1.7c0.8,0.7,1.5,1.5,2,2.5c0.5,1,0.8,2.1,0.8,3.5c0,1.2-0.2,2.3-0.7,3.3
      c-0.5,1-1.2,2-2,2.8c-0.8,0.8-2,1.5-3.3,1.8c-1.3,0.5-2.8,0.7-4.6,0.7c-2,0-4-0.3-5.9-1.2c-1.8-0.8-3.5-1.7-5-2.8L718.2,469.2z"/>
    <path fill="#FFFFFF" d="M744.9,441c-1,0-1.8-0.3-2.5-0.8c-0.7-0.7-1-1.3-1-2.3c0-1,0.3-1.7,1-2.3c0.7-0.7,1.5-0.8,2.5-0.8
      s1.8,0.3,2.5,0.8c0.7,0.5,1,1.3,1,2.3c0,1-0.3,1.7-1,2.3C746.5,440.7,745.7,441,744.9,441z M742.3,446.9h5v28.9h-5V446.9z"/>
    <path fill="#FFFFFF" d="M756.3,450.9H752v-3.6l4.5-0.3l0.7-8.1h4.1v8.1h7.8v4h-7.8v16c0,1.8,0.3,3.1,1,4.1c0.7,1,1.8,1.5,3.5,1.5
      c0.5,0,1,0,1.7-0.2c0.7-0.2,1.2-0.3,1.7-0.5l1,3.6c-0.8,0.3-1.7,0.5-2.6,0.8c-1,0.2-1.8,0.3-2.8,0.3c-1.5,0-2.8-0.2-4-0.7
      c-1-0.5-2-1.2-2.5-2c-0.7-0.8-1.2-1.8-1.3-3c-0.3-1.2-0.5-2.5-0.5-4L756.3,450.9L756.3,450.9z"/>
    <path fill="#FFFFFF" d="M773.1,483.9c0.3,0.2,0.8,0.2,1.2,0.2c1.7,0,3-0.7,4.1-1.8c1-1.2,1.8-2.6,2.5-4.5l0.7-2.1L770,446.8h5.1
      l5.9,16c0.5,1.3,0.8,2.6,1.3,4s1,2.8,1.3,4.1h0.2c0.5-1.3,0.8-2.6,1.3-4.1c0.3-1.5,0.8-2.8,1.2-4l5.1-16h4.8L785.3,478
      c-0.5,1.5-1.2,2.8-1.7,4c-0.7,1.2-1.3,2.3-2.3,3.1c-0.8,0.8-1.8,1.7-3,2.1c-1.2,0.5-2.5,0.8-3.8,0.8c-0.7,0-1.3,0-1.8-0.2
      c-0.5-0.2-1-0.2-1.5-0.5l1-3.8C772.5,483.7,772.8,483.9,773.1,483.9z"/>
  </g>
</g>
</svg>
