<?xml version="1.0" encoding="utf-8"?>
<!-- Generator: Adobe Illustrator 18.0.0, SVG Export Plug-In . SVG Version: 6.00 Build 0)  -->
<!DOCTYPE svg PUBLIC "-//W3C//DTD SVG 1.1//EN" "http://www.w3.org/Graphics/SVG/1.1/DTD/svg11.dtd">
<svg version="1.1" id="Layer_1" xmlns="http://www.w3.org/2000/svg" xmlns:xlink="http://www.w3.org/1999/xlink" x="0px" y="0px"
   viewBox="0 0 792 612" enable-background="new 0 0 792 612" xml:space="preserve">
<g>
  <g>
    <path fill="#515356" d="M257.3,354.7c-20.3,0-32.4,16.1-32.4,34.5c0,20.5,13.4,34.5,37.5,34.5c8.2,0,15.2-1.2,22.7-3.7l-3-12.1
      c-6.2,1.6-13.3,2.6-19.6,2.6c-12.3,0-21.1-5.9-21.4-15.9h47.2v-5.1C288.4,368.9,276.6,354.7,257.3,354.7z M241.3,382.9
      c1.2-10.1,7.4-15.3,16-15.3c9.3,0,14.2,5.7,15.2,15.3H241.3z"/>
    <path fill="#515356" d="M334.9,354.7c-9.9,0-18.5,5.5-22.7,11.8v-10.5h-16.3v66.7h16.7v-37.1c0-9.3,8.1-15.9,15.6-15.9
      c8.3,0,12,4.9,12,13.1v39.8h16.7v-42.3C356.9,365,349.9,354.7,334.9,354.7z"/>
    <path fill="#515356" d="M391,354.7c-7.8,0-16.3,0.8-23.4,2.3l1.4,12.3c7.3-1,13.5-1.5,20.5-1.5c12.3,0,16,3.6,16,11v5.6h-20
      c-13.7,0-21.6,6.9-21.6,19.4c0,11.6,9,19.8,22.4,19.8c9.2,0,15.5-3,19.8-8.5v7.4h16v-43.4C422.2,362.6,410.6,354.7,391,354.7z
       M405.5,397.8c0,8.4-5.6,14-14.5,14c-6.8,0-10.4-2.6-10.4-8.1c0-6,3.7-8.3,10.4-8.3h14.5V397.8z"/>
    <path fill="#515356" d="M466.6,368.1c4,0,8.6,0.4,13.3,1.5l2.7-12c-5.5-2.1-11.2-2.9-17.4-2.9c-22.2,0-36.8,15.1-36.8,34.5
      c0,19.4,14.6,34.5,36.8,34.5c5.5,0,12.7-1.4,17.4-3.1l-2.7-12.2c-5.1,1.4-8.6,2.1-13.3,2.1c-14.5,0-21.5-8.8-21.5-21.2
      C445.1,376.7,452.1,368.1,466.6,368.1z"/>
    <path fill="#515356" d="M568,393c0,9.3-8.1,15.7-15.6,15.7c-8.4,0-11.9-4.9-11.9-13.1v-39.7h-2.2l0,0h-33.6v-18.8H488v18.8v11.2
      v36.3c0,14.6,8.9,20.3,21.1,20.3c3.3,0,7.3-0.5,9.6-1.1l-1.5-12.3c-1.5,0.3-3.7,0.6-4.8,0.6c-4.4,0-7.7-1.5-7.7-8.5v-35.2h19.1
      v31.1c0,15.3,7,25.5,22,25.5c9.9,0,18.3-5.5,22.6-11.8v10.7h16.4v-66.7H568V393z"/>
    <path fill="#515356" d="M624.1,382.9c-11.8-4.7-14.9-5.7-14.9-10.1c0-3.6,2.5-5.2,11.2-5.2c6.6,0,14.8,1.4,20.3,2.9l2.9-12.2
      c-7.3-2.5-17-3.6-23.4-3.6c-17.4,0-27,6.2-27,18.6c0,11.2,5.9,14.8,23.7,22c10.1,4.1,12.7,5.2,12.7,9.2c0,3.7-3,6.3-11.8,6.3
      c-6.8,0-15.3-1.9-23.4-4.8l-3.7,11.6c8.2,3.6,18.6,6,27.2,6c16.8,0,27.9-7.9,27.9-19.8C645.8,392.6,640.8,389.5,624.1,382.9z"/>
  </g>
  <g>
    <path fill="#515356" d="M650.5,415.6v-0.9h6.3v0.9h-2.6v7h-1v-7H650.5z"/>
    <path fill="#515356" d="M658.9,414.7l2.5,6.6l2.5-6.6h1.4v7.8h-1V416h0l-2.5,6.5h-0.9l-2.4-6.5h0v6.5h-1v-7.8H658.9z"/>
  </g>
</g>
<polygon fill="#FFC222" points="311.9,307 275.3,270.4 275.3,270.4 193.3,188.4 193.3,307 127.5,307 193.3,372.8 258.8,307 
  258.8,307 "/>
<g>
  <polygon fill="#C88A12" points="193.3,372.8 193.3,307 185.8,307   "/>
  <polygon fill="#C88A12" points="285.3,280.5 258.8,307 267,307   "/>
</g>
</svg>
